<?xml version="1.0" encoding="UTF-8" standalone="no"?>
<!-- Uploaded to: SVG Repo, www.svgrepo.com, Generator: SVG Repo Mixer Tools -->

<svg
   width="800"
   height="759.48126"
   viewBox="0 -6 256 243.034"
   preserveAspectRatio="xMidYMid"
   version="1.1"
   id="svg1"
   sodipodi:docname="logonew.svg"
   inkscape:version="1.3.2 (1:1.3.2+202311252150+091e20ef0f)"
   xmlns:inkscape="http://www.inkscape.org/namespaces/inkscape"
   xmlns:sodipodi="http://sodipodi.sourceforge.net/DTD/sodipodi-0.dtd"
   xmlns:xlink="http://www.w3.org/1999/xlink"
   xmlns="http://www.w3.org/2000/svg"
   xmlns:svg="http://www.w3.org/2000/svg">
  <sodipodi:namedview
     id="namedview1"
     pagecolor="#ffffff"
     bordercolor="#999999"
     borderopacity="1"
     inkscape:showpageshadow="2"
     inkscape:pageopacity="0"
     inkscape:pagecheckerboard="0"
     inkscape:deskcolor="#d1d1d1"
     inkscape:zoom="0.55300904"
     inkscape:cx="185.34959"
     inkscape:cy="531.63688"
     inkscape:window-width="1920"
     inkscape:window-height="1037"
     inkscape:window-x="1920"
     inkscape:window-y="0"
     inkscape:window-maximized="1"
     inkscape:current-layer="svg1" />
  <defs
     id="defs1">
    <linearGradient
       id="linearGradient3"
       inkscape:collect="always">
      <stop
         style="stop-color:#a381d8;stop-opacity:0.97137804;"
         offset="0.01"
         id="stop3" />
      <stop
         style="stop-color:#a381d8;stop-opacity:0;"
         offset="1"
         id="stop4" />
    </linearGradient>
    <linearGradient
       inkscape:collect="always"
       xlink:href="#linearGradient3"
       id="linearGradient4"
       x1="-2.8579304"
       y1="115.517"
       x2="258.87768"
       y2="115.517"
       gradientUnits="userSpaceOnUse" />
  </defs>
  <path
     d="m 177.81279,163.49531 -15.4178,-5.30131 c -11.076,21.828 -28.016,37.791 -53.426,51.148 -17.266002,9.122 -35.183002,12.38 -53.100002,10.1 -14.66,-1.955 -26.062,-8.47 -33.23,-19.222 -10.424,-15.963 -11.401,-33.23 -2.605,-50.496 6.19,-12.38 15.962,-21.502 22.152,-26.063 -1.303,-4.235 -3.258,-11.402 -4.235,-16.614 -47.2369997,34.207 -42.3499997,80.468 -28.0159997,102.295 10.7499997,16.29 32.5769997,26.389 56.6839997,26.389 6.515,0 13.461799,-0.88969 19.977799,-2.51769 41.699003,-8.145 73.299003,-32.905 91.216003,-69.718 z m 56.9042,-40.15931 c -24.759,-28.995 -61.245,-44.958 -102.944,-44.958 l 1.303,15.637 c 24.759,0 48.214,7.167 69.39,21.176 16.288,10.751 28.016,24.76 34.531,41.7 5.538,13.683 5.212,27.04 -0.652,38.443 -9.121,17.266 -24.432,26.714 -44.63,26.714 -13.031,0 -25.41,-3.91 -31.926,-6.842 -3.583,3.258 -10.099,8.47 -14.66,11.729 14.009,6.515 28.343,10.099 42.025,10.099 31.274,0 54.404,-17.267 63.2,-34.533 9.447,-18.896 8.795,-51.474 -15.637,-79.165 z M 84.536988,150.7 c -13.357,-22.153 -18.895,-46.26 -16.94,-72.323 1.302,-19.547 7.818,-36.488 19.22,-50.497 9.447,-12.054 27.690002,-17.918 40.070002,-18.243 34.531,-0.652 49.19,42.351 50.168,59.618 4.235,0.977 11.402,3.258 16.289,4.887 -3.91,-52.776 -36.487,-80.142 -67.76,-80.142 -29.320002,0 -56.359002,21.176 -67.110002,52.451 -14.985,41.7 -5.212,81.771 13.031,113.372 z"
     fill="#764abc"
     id="path1"
     style="fill:url(#linearGradient4);fill-opacity:0.971378;stroke:none;stroke-opacity:0.97254902;stroke-width:5.70399995;stroke-dasharray:none" />
</svg>
